<svg width="96" height="73" viewBox="0 0 96 73" fill="none" xmlns="http://www.w3.org/2000/svg">
<rect x="37.0715" y="46.2787" width="21.6385" height="6.04138" transform="rotate(-5.24845 37.0715 46.2787)" stroke="black" stroke-width="3.7"/>
<rect x="43.9825" y="32.5398" width="30.072" height="38.4359" transform="rotate(-45.1863 43.9825 32.5398)" fill="#F4F3F8" stroke="black" stroke-width="3.7"/>
<rect x="35.0788" y="42.9986" width="14.0371" height="6.04138" transform="rotate(85.1892 35.0788 42.9986)" stroke="black" stroke-width="3.7"/>
<rect x="70.6763" y="14.17" width="8.83231" height="16.635" transform="rotate(-45.1863 70.6763 14.17)" stroke="black" stroke-width="3.7"/>
<rect x="35.6163" y="30.5867" width="39.4281" height="6.04138" transform="rotate(-45.1863 35.6163 30.5867)" stroke="black" stroke-width="3.7"/>
<path d="M21.2854 45.3377C21.2854 45.3377 12.564 41.9912 10.7856 44.8346C9.00717 47.678 10.2138 50.8073 13.6501 51.6386C17.0864 52.4699 21.2854 45.3377 21.2854 45.3377Z" stroke="black" stroke-width="3.7"/>
<path d="M13.0557 57.8268C13.0557 57.8268 3.73976 57.1369 2.85668 60.3723C1.9736 63.6077 4.03117 66.2562 7.56124 66.0615C11.0913 65.8668 13.0557 57.8268 13.0557 57.8268Z" stroke="black" stroke-width="3.7"/>
<path d="M24.3839 60.4914C24.3839 60.4914 15.3641 62.922 15.601 66.2674C15.8379 69.6128 18.6558 71.4316 21.9227 70.0801C25.1896 68.7286 24.3839 60.4914 24.3839 60.4914Z" stroke="black" stroke-width="3.7"/>
</svg>
